<?xml version="1.0" encoding="UTF-8" standalone="no"?>
<svg
     xmlns:dc="http://purl.org/dc/elements/1.1/"
     xmlns:cc="http://creativecommons.org/ns#"
     xmlns:rdf="http://www.w3.org/1999/02/22-rdf-syntax-ns#"
     xmlns:svg="http://www.w3.org/2000/svg"
     xmlns="http://www.w3.org/2000/svg"
     version="1.1"
     id="svg3368"
     viewBox="0 0 500 172.33802"
     height="172.33803"
     width="500">
    <defs
         id="defs3370" />
    <metadata
         id="metadata3373">
        <rdf:RDF>
            <cc:Work
                 rdf:about="">
                <dc:format>image/svg+xml</dc:format>
                <dc:type
                     rdf:resource="http://purl.org/dc/dcmitype/StillImage" />
                <dc:title></dc:title>
            </cc:Work>
        </rdf:RDF>
    </metadata>
    <g
         transform="translate(-200.07915,-323.22985)"
         id="layer1">
        <g
             id="g7"
             transform="matrix(4.9499505,0,0,4.9499505,108.42614,251.48059)">
            <path
                 id="path9"
                 d="m 27.998,37.058 c 2.602,0 3.86,-2.645 3.86,-5.045 0,-2.4 -1.219,-5.109 -3.86,-5.109 -2.754,0 -3.969,2.709 -3.969,5.109 0,2.4 1.254,5.045 3.969,5.045 m 8.87,1.115 c 0,1.279 0,3.27 -2.402,3.27 -1.466,0 -2.052,-0.807 -2.404,-2.125 -1.282,1.529 -2.85,2.328 -4.768,2.328 -4.69,0 -8.273,-4.004 -8.273,-9.633 0,-5.498 3.687,-9.707 8.273,-9.707 1.846,0 3.654,0.727 4.768,2.292 0.139,-1.217 1.189,-2.083 2.404,-2.083 2.402,0 2.402,1.985 2.402,3.276 l 0,12.382 z"
                 style="fill:#fc4c02" />
            <path
                 id="path11"
                 d="m 47.22,37.056 c 2.602,0 3.89,-2.715 3.89,-5.043 0,-2.363 -1.289,-5.111 -3.89,-5.111 -2.687,0 -3.933,2.5 -3.933,4.936 0,2.437 1.177,5.218 3.933,5.218 M 38.277,25.3 c 0,-1.667 1.038,-2.785 2.502,-2.785 1.384,0 2.192,0.771 2.508,2.083 0.935,-1.527 2.885,-2.292 4.768,-2.292 5.38,0 8.06,5.044 8.06,9.912 0,4.734 -3.19,9.428 -8.236,9.428 -1.576,0 -3.271,-0.594 -4.591,-1.74 l 0,6.121 c 0,1.666 -1.044,2.779 -2.508,2.779 -1.464,0 -2.502,-1.113 -2.502,-2.779 l 0,-20.727 z"
                 style="fill:#fc4c02" />
            <path
                 id="path13"
                 d="m 57.301,25.3 c 0,-1.667 1.041,-2.785 2.504,-2.785 1.46,0 2.504,1.118 2.504,2.785 l 0,13.35 c 0,1.676 -1.044,2.793 -2.504,2.793 -1.463,0 -2.504,-1.117 -2.504,-2.793 l 0,-13.35 z m 5.325,-7.548 c 0,1.57 -1.256,2.885 -2.822,2.885 -1.498,0 -2.819,-1.355 -2.819,-2.885 0,-1.426 1.321,-2.752 2.819,-2.752 1.495,0 2.822,1.293 2.822,2.752"
                 style="fill:#fc4c02" />
            <path
                 id="path15"
                 d="m 72.396,26.904 c -2.614,0 -3.896,2.709 -3.896,5.033 0,2.68 1.283,5.121 3.896,5.121 2.677,0 3.929,-2.506 3.929,-4.941 0,-2.434 -1.182,-5.213 -3.929,-5.213 m 8.937,12.869 c 0,6.016 -3.933,9.033 -9.627,9.033 -2.058,0 -7.902,-1.006 -7.902,-3.748 0,-0.949 1.042,-2.201 2.018,-2.201 1.598,0 3.369,1.574 6.264,1.574 2.429,0 4.24,-1.424 4.24,-3.969 l 0,-1.178 -0.066,0 c -1.055,1.533 -2.75,2.361 -5.053,2.361 -5.244,0 -7.717,-4.627 -7.717,-9.604 0,-5.041 3.202,-9.736 8.247,-9.736 1.704,0 3.65,0.766 4.588,2.292 0.315,-1.313 1.111,-2.084 2.506,-2.084 1.464,0 2.502,1.118 2.502,2.788 l 0,14.472 z"
                 style="fill:#4a494a" />
            <path
                 id="path17"
                 d="m 95.211,30.314 c -0.277,-2.197 -1.666,-3.828 -3.996,-3.828 -2.226,0 -3.73,1.699 -3.972,3.828 l 7.968,0 z m -7.858,3.338 c 0.346,2.463 2.402,3.613 4.726,3.613 2.578,0 4.35,-2.018 5.671,-2.018 1.081,0 2.056,1.076 2.056,2.158 0,2.152 -4.454,4.24 -8.178,4.24 -5.636,0 -9.39,-4.104 -9.39,-9.635 0,-5.072 3.685,-9.704 8.978,-9.704 5.422,0 9.006,4.94 9.006,9.112 0,1.5 -0.662,2.232 -2.195,2.232 l -10.674,0 z"
                 style="fill:#4a494a" />
            <path
                 id="path19"
                 d="m 114.003,30.375 c -0.272,-2.193 -1.669,-3.828 -3.998,-3.828 -2.228,0 -3.726,1.703 -3.964,3.828 l 7.962,0 z m -7.856,3.339 c 0.35,2.477 2.396,3.617 4.73,3.617 2.569,0 4.345,-2.02 5.665,-2.02 1.082,0 2.055,1.076 2.055,2.154 0,2.156 -4.454,4.246 -8.17,4.246 -5.639,0 -9.396,-4.107 -9.396,-9.635 0,-5.084 3.689,-9.705 8.974,-9.705 5.427,0 9.017,4.937 9.017,9.111 0,1.502 -0.662,2.23 -2.205,2.23 l -10.67,0 z"
                 style="fill:#4a494a" />
        </g>
    </g>
</svg>
